<svg xmlns="http://www.w3.org/2000/svg" width="20" height="20" viewBox="0 0 20 20">
  <path id="grid" d="M5.378,2H7.622c.4,0,.752,0,1.048.025a2.536,2.536,0,0,1,.983.257,2.5,2.5,0,0,1,1.066,1.066,2.537,2.537,0,0,1,.257.983c.024.3.024.652.024,1.048V9.622c0,.4,0,.752-.024,1.048a2.536,2.536,0,0,1-.257.983,2.5,2.5,0,0,1-1.066,1.066,2.537,2.537,0,0,1-.983.257C8.373,13,8.017,13,7.622,13H5.378c-.4,0-.752,0-1.048-.024a2.537,2.537,0,0,1-.983-.257,2.5,2.5,0,0,1-1.066-1.066,2.536,2.536,0,0,1-.257-.983C2,10.373,2,10.017,2,9.622V5.378c0-.4,0-.752.025-1.048a2.536,2.536,0,0,1,.257-.983A2.5,2.5,0,0,1,3.348,2.281a2.536,2.536,0,0,1,.983-.257C4.627,2,4.983,2,5.378,2Zm-1.1,2.053-.008,0a.5.5,0,0,0-.213.213l0,.008a.3.3,0,0,0-.009.032,1.278,1.278,0,0,0-.026.187C4,4.7,4,4.971,4,5.415v4.17c0,.444,0,.716.018.919a1.278,1.278,0,0,0,.026.187.3.3,0,0,0,.009.032l0,.008a.5.5,0,0,0,.213.213l.008,0,.032.009a1.273,1.273,0,0,0,.187.026c.2.017.475.018.919.018h2.17c.444,0,.716,0,.919-.018a1.273,1.273,0,0,0,.187-.026l.032-.009.008,0a.5.5,0,0,0,.213-.213l0-.008a.3.3,0,0,0,.009-.032,1.28,1.28,0,0,0,.026-.187C9,10.3,9,10.029,9,9.585V5.415C9,4.971,9,4.7,8.982,4.5a1.28,1.28,0,0,0-.026-.187.3.3,0,0,0-.009-.032l0-.008a.5.5,0,0,0-.213-.213l-.008,0L8.69,4.044A1.279,1.279,0,0,0,8.5,4.018C8.3,4,8.029,4,7.585,4H5.415C4.971,4,4.7,4,4.5,4.018a1.278,1.278,0,0,0-.187.026ZM16.378,2h2.243c.4,0,.752,0,1.048.025a2.536,2.536,0,0,1,.983.257,2.5,2.5,0,0,1,1.066,1.066,2.537,2.537,0,0,1,.257.983c.024.3.024.652.024,1.048v.243c0,.4,0,.752-.024,1.048a2.537,2.537,0,0,1-.257.983,2.5,2.5,0,0,1-1.066,1.066,2.536,2.536,0,0,1-.983.257C19.373,9,19.017,9,18.622,9H16.378c-.4,0-.752,0-1.048-.025a2.536,2.536,0,0,1-.983-.257,2.5,2.5,0,0,1-1.066-1.066,2.537,2.537,0,0,1-.257-.983C13,6.373,13,6.017,13,5.622V5.378c0-.4,0-.752.024-1.048a2.537,2.537,0,0,1,.257-.983,2.5,2.5,0,0,1,1.066-1.066,2.536,2.536,0,0,1,.983-.257C15.627,2,15.983,2,16.378,2Zm-1.1,2.053-.008,0a.5.5,0,0,0-.213.213l0,.008a.3.3,0,0,0-.009.032,1.273,1.273,0,0,0-.026.187C15,4.7,15,4.971,15,5.415v.17c0,.444,0,.716.018.919a1.273,1.273,0,0,0,.026.187.306.306,0,0,0,.009.032l0,.008a.5.5,0,0,0,.213.213l.008,0,.032.009a1.282,1.282,0,0,0,.187.026c.2.017.475.018.919.018h2.17c.444,0,.716,0,.919-.018a1.28,1.28,0,0,0,.186-.026l.032-.009.008,0a.5.5,0,0,0,.213-.213l0-.008a.307.307,0,0,0,.009-.032,1.273,1.273,0,0,0,.026-.187C20,6.3,20,6.029,20,5.585v-.17c0-.444,0-.716-.018-.919a1.273,1.273,0,0,0-.026-.187.305.305,0,0,0-.009-.032l0-.008a.5.5,0,0,0-.213-.213l-.008,0-.032-.009a1.278,1.278,0,0,0-.186-.026C19.3,4,19.029,4,18.585,4h-2.17c-.444,0-.716,0-.919.018a1.281,1.281,0,0,0-.187.026ZM16.378,11h2.243c.4,0,.752,0,1.048.024a2.536,2.536,0,0,1,.983.257,2.5,2.5,0,0,1,1.066,1.066,2.536,2.536,0,0,1,.257.983c.024.3.024.652.024,1.048v4.243c0,.4,0,.752-.024,1.048a2.536,2.536,0,0,1-.257.983,2.5,2.5,0,0,1-1.066,1.066,2.536,2.536,0,0,1-.983.257c-.3.024-.652.024-1.048.024H16.378c-.4,0-.752,0-1.048-.024a2.536,2.536,0,0,1-.983-.257,2.5,2.5,0,0,1-1.066-1.066,2.536,2.536,0,0,1-.257-.983C13,19.373,13,19.017,13,18.622V14.378c0-.4,0-.752.024-1.048a2.536,2.536,0,0,1,.257-.983,2.5,2.5,0,0,1,1.066-1.066,2.536,2.536,0,0,1,.983-.257C15.627,11,15.983,11,16.378,11Zm-1.1,2.053-.008,0a.5.5,0,0,0-.213.213l0,.008a.306.306,0,0,0-.009.032,1.275,1.275,0,0,0-.026.187c-.017.2-.018.475-.018.919v4.17c0,.444,0,.716.018.919a1.273,1.273,0,0,0,.026.186.306.306,0,0,0,.009.032l0,.008a.5.5,0,0,0,.213.213l.008,0,.032.009a1.275,1.275,0,0,0,.187.026c.2.017.475.018.919.018h2.17c.444,0,.716,0,.919-.018a1.273,1.273,0,0,0,.186-.026l.032-.009.008,0a.5.5,0,0,0,.213-.213l0-.008a.307.307,0,0,0,.009-.032,1.273,1.273,0,0,0,.026-.186c.017-.2.018-.475.018-.919v-4.17c0-.444,0-.716-.018-.919a1.275,1.275,0,0,0-.026-.187.307.307,0,0,0-.009-.032l0-.008a.5.5,0,0,0-.213-.213l-.008,0-.032-.009a1.273,1.273,0,0,0-.186-.026C19.3,13,19.029,13,18.585,13h-2.17c-.444,0-.716,0-.919.018a1.275,1.275,0,0,0-.187.026ZM5.378,15H7.622c.4,0,.752,0,1.048.024a2.537,2.537,0,0,1,.983.257,2.5,2.5,0,0,1,1.066,1.066,2.536,2.536,0,0,1,.257.983c.024.3.024.652.024,1.048v.243c0,.4,0,.752-.024,1.048a2.536,2.536,0,0,1-.257.983,2.5,2.5,0,0,1-1.066,1.066,2.537,2.537,0,0,1-.983.257C8.373,22,8.017,22,7.622,22H5.378c-.4,0-.752,0-1.048-.024a2.537,2.537,0,0,1-.983-.257,2.5,2.5,0,0,1-1.066-1.066,2.536,2.536,0,0,1-.257-.983C2,19.373,2,19.017,2,18.622v-.243c0-.4,0-.752.025-1.048a2.536,2.536,0,0,1,.257-.983,2.5,2.5,0,0,1,1.066-1.066,2.537,2.537,0,0,1,.983-.257C4.627,15,4.983,15,5.378,15Zm-1.1,2.053-.008,0a.5.5,0,0,0-.213.213l0,.008a.3.3,0,0,0-.009.032,1.28,1.28,0,0,0-.026.186C4,17.7,4,17.971,4,18.415v.17c0,.444,0,.716.018.919a1.278,1.278,0,0,0,.026.186.3.3,0,0,0,.009.032l0,.008a.5.5,0,0,0,.213.213l.008,0,.032.009a1.273,1.273,0,0,0,.187.026c.2.017.475.018.919.018h2.17c.444,0,.716,0,.919-.018a1.273,1.273,0,0,0,.187-.026l.032-.009.008,0a.5.5,0,0,0,.213-.213l0-.008a.3.3,0,0,0,.009-.032,1.28,1.28,0,0,0,.026-.186C9,19.3,9,19.029,9,18.585v-.17c0-.444,0-.716-.018-.919a1.282,1.282,0,0,0-.026-.186.3.3,0,0,0-.009-.032l0-.008a.5.5,0,0,0-.213-.213l-.008,0-.032-.009a1.273,1.273,0,0,0-.187-.026C8.3,17,8.029,17,7.585,17H5.415c-.444,0-.716,0-.919.018a1.273,1.273,0,0,0-.187.026Z" transform="translate(-2 -2)" fill="#8e8e8e" fill-rule="evenodd"/>
</svg>
