<svg xmlns="http://www.w3.org/2000/svg" width="31.999" height="31.999" viewBox="0 0 31.999 31.999">
  <g id="trash" transform="translate(-9.29 -8.594)">
    <path id="Path_1" data-name="Path 1" d="M10.289,14.211h3.1L14.835,39.65a1,1,0,0,0,1,.943H34.766a1,1,0,0,0,1-.944l1.421-25.438h3.1a1,1,0,0,0,0-2H36.548a1.025,1.025,0,0,0-.156.031,1.012,1.012,0,0,0-.153-.031H30.993V9.594a1,1,0,0,0-1-1H20.584a1,1,0,0,0-1,1v2.617H14.336a1,1,0,0,0-.132.027.872.872,0,0,0-.135-.027H10.29a1,1,0,0,0,0,2Zm11.3-3.617h7.409v1.617H21.584Zm13.6,3.617L33.82,38.594H16.778L15.394,14.211H35.182Z" fill="#8e8e8e"/>
    <path id="Path_2" data-name="Path 2" d="M20.337,36.719H20.4a1,1,0,0,0,.941-1.055L20.284,17.128a1.012,1.012,0,0,0-1.055-.942,1,1,0,0,0-.941,1.055L19.34,35.776A1,1,0,0,0,20.337,36.719Z" fill="#8e8e8e"/>
    <path id="Path_3" data-name="Path 3" d="M30.147,36.718H30.2a1,1,0,0,0,1-.943l1.052-18.535a1,1,0,0,0-.941-1.055,1.011,1.011,0,0,0-1.055.942L29.206,35.663A1,1,0,0,0,30.147,36.718Z" fill="#8e8e8e"/>
    <path id="Path_4" data-name="Path 4" d="M25.289,36.719a1,1,0,0,0,1-1V17.184a1,1,0,0,0-2,0V35.719A1,1,0,0,0,25.289,36.719Z" fill="#8e8e8e"/>
  </g>
</svg>
